<svg width="39" height="40" viewBox="0 0 39 40" fill="none" xmlns="http://www.w3.org/2000/svg">
<path d="M27.625 3.35303H11.375C6.88769 3.35303 3.25 6.99071 3.25 11.478V27.728C3.25 32.2153 6.88769 35.853 11.375 35.853H27.625C32.1123 35.853 35.75 32.2153 35.75 27.728V11.478C35.75 6.99071 32.1123 3.35303 27.625 3.35303Z" fill="#FA4A0C"/>
<path d="M26 18.5793C26.2006 19.9317 25.9696 21.3129 25.3399 22.5264C24.7102 23.74 23.7139 24.7241 22.4927 25.3387C21.2714 25.9534 19.8875 26.1674 18.5377 25.9502C17.1878 25.733 15.9409 25.0957 14.9741 24.1289C14.0074 23.1622 13.3701 21.9152 13.1529 20.5654C12.9357 19.2156 13.1496 17.8316 13.7643 16.6104C14.379 15.3892 15.3631 14.3929 16.5766 13.7632C17.7902 13.1335 19.1714 12.9025 20.5238 13.103C21.9033 13.3076 23.1804 13.9504 24.1665 14.9365C25.1526 15.9226 25.7955 17.1998 26 18.5793Z" stroke="white" stroke-width="2" stroke-linecap="round" stroke-linejoin="round"/>
<path d="M28.4375 10.6655H28.4537" stroke="white" stroke-width="2" stroke-linecap="round" stroke-linejoin="round"/>
</svg>
